<?xml version="1.0" encoding="utf-8"?>
<!-- Generator: Adobe Illustrator 26.0.3, SVG Export Plug-In . SVG Version: 6.00 Build 0)  -->
<svg version="1.1" id="Layer_1" xmlns="http://www.w3.org/2000/svg" xmlns:xlink="http://www.w3.org/1999/xlink" x="0px" y="0px"
	 viewBox="0 0 16.3 20" style="enable-background:new 0 0 16.3 20;" xml:space="preserve">
<g id="apple-logo-svgrepo-com" transform="translate(-2.104)">
	<g id="Group_91" transform="translate(2.104)">
		<path id="Path_38" d="M11.9,0h0.1c0.1,1.1-0.3,2.2-1,3.1C10.4,4,9.3,4.5,8.2,4.4c-0.1-1.1,0.3-2.2,1-3C10,0.6,10.9,0.2,11.9,0z"/>
		<path id="Path_39" d="M16.3,14.6L16.3,14.6c-0.4,1.2-0.9,2.3-1.7,3.3C14,18.8,13.2,20,11.8,20c-1.2,0-2-0.8-3.2-0.8
			c-1.3,0-2,0.7-3.2,0.8H5c-0.9-0.2-1.6-0.7-2.1-1.5c-1.7-2.1-2.7-4.7-2.9-7.4v-0.9c0-1.9,1-3.8,2.6-4.9c0.9-0.6,1.9-0.8,2.9-0.7
			c0.5,0.1,1,0.2,1.4,0.4c0.4,0.2,0.9,0.4,1.4,0.4c0.3-0.1,0.7-0.2,1-0.3c1-0.5,2.1-0.7,3.2-0.6c1.3,0.1,2.5,0.9,3.3,2
			c-1.5,0.9-2.3,2.5-2.1,4.2C13.8,12.5,14.8,14,16.3,14.6z"/>
	</g>
</g>
</svg>
