<?xml version="1.0" encoding="utf-8"?>
<!-- Generator: Adobe Illustrator 26.0.3, SVG Export Plug-In . SVG Version: 6.00 Build 0)  -->
<svg version="1.1" id="Layer_1" xmlns="http://www.w3.org/2000/svg" xmlns:xlink="http://www.w3.org/1999/xlink" x="0px" y="0px"
	 viewBox="0 0 20 20" style="enable-background:new 0 0 20 20;" xml:space="preserve">

<g>
	<g>
		<path class="st0" d="M8.4,6.3c-0.7,0-0.7,1.1,0,1.1C9.1,7.4,9.1,6.3,8.4,6.3z"/>
		<path class="st0" d="M11.9,7.3c0.7,0,0.7-1.1,0-1.1C11.2,6.2,11.2,7.3,11.9,7.3z"/>
		<path class="st0" d="M12.5,8.1c-1.3-0.1-2.6,0-3.9,0.2C8,8.4,8.2,9.4,8.9,9.3c1.2-0.2,2.4-0.2,3.6-0.2C13.2,9.1,13.2,8.1,12.5,8.1
			z"/>
		<path class="st0" d="M19.4,12.4c0-0.2-0.2-0.5-0.5-0.5c-0.9-0.1-1.7-0.2-2.6-0.2c0-0.4,0-0.7,0-1.1c0-0.4-0.5-0.6-0.8-0.5
			c0,0,0,0,0,0c-0.2-1.9-0.3-3.9-0.4-5.8c0-0.3-0.3-0.5-0.5-0.5c0,0-0.1,0-0.1,0c-0.5,0-1,0-1.5,0V3.2c0-0.1,0-0.1,0-0.2
			c0-0.2,0-0.3,0-0.5c0.2-0.1,0.3-0.2,0.4-0.3c0.8-0.8-0.4-2.2-1.3-2c-0.6,0.2-1.1,0.9-1,1.5c0.1,0.4,0.6,0.7,1,0.8c0,0,0,0,0,0.1
			c0,0,0,0.1,0,0.1c0,0,0,0.1,0,0.1c0,0,0,0.1,0,0.1c0,0.1,0,0.1,0,0.2v0.7c-1.4,0-2.9,0.1-4.3,0.2c0,0,0-1.4,0-1.4
			c0.1-0.2,0.5-0.4,0.6-0.6c0.1-0.3,0.2-0.5,0.2-0.8C8.3,0.5,7.8,0,7.2,0c0,0,0,0,0,0C6.9,0,6.7,0,6.4,0.2c-0.1,0-0.1,0.1-0.2,0.2
			C6,0.5,5.8,0.8,5.7,1.2C5.6,1.6,5.8,1.9,6.1,2.3c0,0,0.1,0.1,0.1,0.1c0,0,0.1,0.1,0.2,0.1c0.2,0.1,0.3,0.1,0.5,0.1V4
			C6.5,4,6.2,4.1,5.9,4.1c-0.3,0-0.4,0.2-0.5,0.4c0,0.1-0.1,0.1,0,0.2c0.1,1.9,0.1,3.7,0,5.6c-0.3,0-0.6,0.1-0.9,0.1
			c-0.3,0-0.4,0.3-0.4,0.5c0,0,0,0.1,0,0.1c0,0.2,0,0.4,0,0.6c0,0-0.1,0-0.1,0c-0.9,0-1.9,0.1-2.8,0.2c-0.3,0-0.5,0.3-0.5,0.5
			c0,0,0,0.1,0,0.2c-0.1,2.3-0.2,4.6-0.3,7c0,0.7,1,0.7,1.1,0c0.1-2.2,0.2-4.4,0.3-6.6c0.8-0.1,1.5-0.1,2.3-0.1c0,0,0.1,0,0.1,0
			c0,2.2,0,4.3,0.1,6.5c0,0.7,1.1,0.7,1.1,0c-0.1-2.6-0.1-5.2-0.1-7.8c3.3-0.5,6.7-0.3,10.1-0.2c0.1,2.5,0.2,5,0.2,7.6
			c0,0.7,1.1,0.7,1.1,0c-0.1-2-0.1-4-0.2-6c0.7,0,1.4,0.1,2,0.1c0.1,2.2,0.2,4.4,0.3,6.6c0,0.7,1.1,0.7,1.1,0
			c-0.1-2.3-0.2-4.6-0.3-7C19.4,12.5,19.4,12.4,19.4,12.4z M11.9,1.5c-0.2-0.3,0.4-0.4,0.7-0.1c0.3,0.4-0.3,0.4-0.5,0.2
			C12,1.6,11.9,1.5,11.9,1.5z M6.7,1.6C6.5,1.4,6.6,1.2,6.8,1c0,0,0.1-0.1,0.1-0.1c0,0,0.1,0,0.1,0c0,0,0,0,0,0c0,0,0,0,0,0
			c0,0,0.1,0,0,0c0,0,0.1,0,0.1,0c0,0,0,0,0,0c0,0,0,0,0,0c0,0,0.1,0,0.1,0c0,0,0,0,0,0c0,0,0,0,0,0c0,0,0.1,0.1,0,0.1c0,0,0,0,0,0
			c0,0,0,0,0,0v0.4c0,0,0,0,0,0c0,0,0,0,0,0c0,0,0,0,0,0c0,0,0,0.1-0.1,0.1c0,0,0,0,0,0c0,0,0,0,0,0c0,0,0,0,0,0
			C7.1,1.7,6.9,1.7,6.7,1.6z M6.4,10.2c0.1-1.7,0.1-3.4,0-5.1c2.5-0.3,5-0.3,7.6-0.3c0.1,1.8,0.2,3.5,0.4,5.3
			C11.7,10.1,9.1,10,6.4,10.2z"/>
		<path class="st0" d="M8.9,15C8.9,14.9,8.8,14.9,8.9,15c0-0.3-0.1-0.5-0.4-0.5H6.6c-0.2,0-0.3,0.1-0.4,0.2C6.1,14.7,6,14.8,6,15
			c0,0.7,0,1.5-0.1,2.2c0,0.1,0,0.2,0.1,0.3c0,0.1,0.1,0.2,0.3,0.3c0.7,0.1,1.5,0.1,2.2,0.1c0.1,0,0.1,0,0.1,0
			c0.2,0,0.4-0.1,0.4-0.4C9,16.7,8.9,15.8,8.9,15z M6.8,17c0-0.6,0-1.1,0-1.7H8c0,0.6,0.1,1.2,0.1,1.8C7.7,17,7.3,17,6.8,17z"/>
		<path class="st0" d="M13.5,14.4c-1,0.1-2,0.1-3,0.1c-0.6,0-0.6,0.9,0,0.9c1,0,2,0,3-0.1C14,15.2,14,14.3,13.5,14.4z"/>
		<path class="st0" d="M13.5,16.2c-1,0.1-2.1,0.1-3.1,0.1c-0.6,0-0.6,0.9,0,0.9c1,0,2.1-0.1,3.1-0.1C14,17.1,14,16.2,13.5,16.2z"/>
		<path class="st0" d="M7.1,12.2c-0.6,0-0.6,0.9,0,0.9S7.7,12.2,7.1,12.2z"/>
		<path class="st0" d="M9.2,12.1c-0.6,0-0.6,0.9,0,0.9C9.8,13,9.8,12.1,9.2,12.1z"/>
		<path class="st0" d="M11.7,12.1c-0.6,0-0.6,0.9,0,0.9C12.2,13,12.2,12.1,11.7,12.1z"/>
	</g>
</g>
</svg>
