<?xml version="1.0" encoding="utf-8"?>
<!-- Generator: Adobe Illustrator 26.1.0, SVG Export Plug-In . SVG Version: 6.00 Build 0)  -->
<svg version="1.1" id="Layer_1" xmlns="http://www.w3.org/2000/svg" xmlns:xlink="http://www.w3.org/1999/xlink" x="0px" y="0px"
	 viewBox="0 0 512 512" style="enable-background:new 0 0 512 512;" xml:space="preserve">
<g>
	<g>
		<polygon points="411.8,189.2 411.8,66.8 378.4,66.8 378.4,189.2 322.8,189.2 322.8,66.8 289.4,66.8 289.4,189.2 222.6,189.2 
			222.6,66.8 189.2,66.8 189.2,189.2 133.6,189.2 133.6,66.8 100.2,66.8 100.2,189.2 33.4,189.2 33.4,222.6 478.6,222.6 
			478.6,189.2 		"/>
	</g>
</g>
<g>
	<g>
		<rect x="100.2" width="33.4" height="33.4"/>
	</g>
</g>
<g>
	<g>
		<rect x="289.4" width="33.4" height="33.4"/>
	</g>
</g>
<g>
	<g>
		<rect x="378.4" width="33.4" height="33.4"/>
	</g>
</g>
<g>
	<g>
		<polygon points="478.6,222.6 478.6,289.4 445.2,289.4 445.2,322.8 345,322.8 345,289.4 311.7,289.4 311.7,322.8 200.3,322.8 
			200.3,289.4 167,289.4 167,322.8 66.8,322.8 66.8,289.4 33.4,289.4 33.4,222.6 0,222.6 0,400.7 512,400.7 512,222.6 		"/>
	</g>
</g>
<g>
	<g>
		<polygon points="0,434.1 0,478.6 33.4,478.6 33.4,512 478.6,512 478.6,478.6 512,478.6 512,434.1 		"/>
	</g>
</g>
<g>
	<g>
		<rect x="189.2" width="33.4" height="33.4"/>
	</g>
</g>
</svg>
