<?xml version="1.0" encoding="utf-8"?>
<!-- Generator: Adobe Illustrator 26.1.0, SVG Export Plug-In . SVG Version: 6.00 Build 0)  -->
<svg version="1.1" id="Layer_1" xmlns="http://www.w3.org/2000/svg" xmlns:xlink="http://www.w3.org/1999/xlink" 
	 viewBox="0 0 24 24"  xml:space="preserve">
<g>
	<path d="M3.23,0h9.38c1.03,0,1.99,0.16,2.88,0.49c0.89,0.32,1.67,0.77,2.33,1.34c0.66,0.57,1.18,1.23,1.56,1.99
		c0.38,0.76,0.57,1.58,0.57,2.45c0,1.27-0.31,2.34-0.92,3.2c-0.62,0.86-1.38,1.51-2.29,1.96v0.27c1.23,0.45,2.22,1.15,2.96,2.09
		c0.75,0.95,1.12,2.13,1.12,3.54c0,1.03-0.21,1.95-0.62,2.77c-0.41,0.82-0.98,1.51-1.69,2.09c-0.71,0.58-1.55,1.03-2.5,1.34
		C15.07,23.84,14.04,24,12.95,24H3.23V0z M12.28,9.79c1.05,0,1.86-0.28,2.43-0.85c0.57-0.57,0.86-1.25,0.86-2.03
		s-0.28-1.45-0.84-2.01c-0.56-0.56-1.33-0.84-2.31-0.84H7.76v5.73H12.28z M12.78,19.84c1.14,0,2.01-0.28,2.61-0.85
		c0.6-0.57,0.91-1.3,0.91-2.19c0-0.89-0.31-1.64-0.92-2.23c-0.62-0.59-1.52-0.89-2.73-0.89H7.76v6.17H12.78z"/>
</g>
</svg>
