<?xml version="1.0" encoding="utf-8"?>
<!-- Generator: Adobe Illustrator 26.0.3, SVG Export Plug-In . SVG Version: 6.00 Build 0)  -->
<svg version="1.1" id="Layer_1" xmlns="http://www.w3.org/2000/svg" xmlns:xlink="http://www.w3.org/1999/xlink" x="0px" y="0px"
	 viewBox="0 0 24 24" style="enable-background:new 0 0 24 24;" xml:space="preserve">
<style type="text/css">
	.st0{fill:none;}
</style>
<g>
	<path class="st0" d="M-2.3-2.3h28.4v28.4H-2.3V-2.3z"/>
	<path d="M11.9,0c6.5,0,11.9,5.3,11.9,11.9s-5.3,11.9-11.9,11.9S0,18.4,0,11.9S5.4,0,11.9,0z M11.9,2.4c-5.2,0-9.5,4.2-9.5,9.5
		s4.2,9.5,9.5,9.5s9.5-4.2,9.5-9.5S17.1,2.4,11.9,2.4z M12,7.7c2.4,0,4.3,1.9,4.3,4.3c0,2.4-1.9,4.3-4.3,4.3c-2.4,0-4.3-1.9-4.3-4.3
		c0-0.4,0.1-0.9,0.2-1.3c0.5,1.1,1.8,1.6,2.8,1.1c0.8-0.3,1.3-1.1,1.3-2c0-0.8-0.5-1.6-1.3-2C11.1,7.8,11.6,7.7,12,7.7z"/>
</g>
</svg>
