<?xml version="1.0" encoding="utf-8"?>
<!-- Generator: Adobe Illustrator 26.0.2, SVG Export Plug-In . SVG Version: 6.00 Build 0)  -->
<svg version="1.1" id="Layer_1" xmlns="http://www.w3.org/2000/svg" xmlns:xlink="http://www.w3.org/1999/xlink" x="0px" y="0px"
	 viewBox="0 0 15.4 15" style="enable-background:new 0 0 15.4 15;" xml:space="preserve">
<path id="github" d="M7.7,0C3.4,0,0,3.5,0,7.7C0,11,2.1,13.9,5.3,15c0.4,0.1,0.5-0.2,0.5-0.4c0-0.2,0-0.7,0-1.3
	c-2.1,0.5-2.6-1-2.6-1c-0.1-0.5-0.4-0.9-0.9-1.1c-0.7-0.5,0.1-0.5,0.1-0.5c0.5,0.1,0.9,0.4,1.2,0.8C4,12.3,5,12.6,5.8,12.1
	c0,0,0,0,0,0c0-0.4,0.2-0.8,0.5-1c-1.7-0.2-3.5-0.9-3.5-3.8c0-0.8,0.3-1.5,0.8-2.1c-0.2-0.7-0.2-1.4,0.1-2c0,0,0.6-0.2,2.1,0.8
	C7,3.6,8.3,3.6,9.6,4c1.5-1,2.1-0.8,2.1-0.8c0.3,0.6,0.3,1.4,0.1,2c0.5,0.6,0.8,1.3,0.8,2.1c0,3-1.8,3.6-3.5,3.8
	c0.4,0.4,0.6,0.9,0.5,1.4c0,1,0,1.9,0,2.1c0,0.2,0.1,0.4,0.5,0.4c4-1.3,6.2-5.7,4.9-9.7C14,2.1,11,0,7.7,0L7.7,0z"/>
</svg>
