<?xml version="1.0" encoding="utf-8"?>
<!-- Generator: Adobe Illustrator 26.0.3, SVG Export Plug-In . SVG Version: 6.00 Build 0)  -->
<svg version="1.1" id="Layer_1" xmlns="http://www.w3.org/2000/svg" xmlns:xlink="http://www.w3.org/1999/xlink" x="0px" y="0px"
	 viewBox="0 0 20 20" style="enable-background:new 0 0 20 20;" xml:space="preserve">
<path id="google-svgrepo-com" d="M4.4,8.1c-1.1,3.1,0.6,6.5,3.7,7.6c1.6,0.6,3.4,0.4,4.9-0.5l0,0c1.2-0.7,2.1-1.8,2.6-3h-5.3v-4h9.6
	c1,5.4-2.5,10.7-8,11.7c-5.4,1-10.7-2.5-11.7-8s2.5-10.7,8-11.7c2.9-0.6,6,0.2,8.2,2.1L13.1,5C10.4,3.2,6.7,4.1,5,6.9
	C4.7,7.2,4.5,7.6,4.4,8.1z"/>
</svg>
