<?xml version="1.0" encoding="utf-8"?>
<!-- Generator: Adobe Illustrator 26.1.0, SVG Export Plug-In . SVG Version: 6.00 Build 0)  -->
<svg version="1.1" id="Layer_1" xmlns="http://www.w3.org/2000/svg" xmlns:xlink="http://www.w3.org/1999/xlink" x="0px" y="0px"
	 viewBox="0 0 24 24" style="enable-background:new 0 0 24 24;" xml:space="preserve">

<g>
	<path class="st0" d="M24,2.47H0v19.05h24V2.47z M21.85,4.74v11.77l-6.4-5.65l-2.94,2.51L8.34,9.54l-6.38,6.71V4.74H21.85z
		 M21.43,19.28H2.36L8.28,12l4.32,4.62l3.09-2.9L21.43,19.28z"/>
	<path class="st0" d="M16.04,10.5c1.4,0,2.55-1.14,2.55-2.55c0-1.4-1.14-2.55-2.55-2.55c-1.4,0-2.55,1.14-2.55,2.55
		C13.49,9.36,14.63,10.5,16.04,10.5z M16.04,6.73c0.68,0,1.22,0.55,1.22,1.22c0,0.68-0.55,1.22-1.22,1.22
		c-0.68,0-1.22-0.55-1.22-1.22C14.81,7.28,15.36,6.73,16.04,6.73z"/>
</g>
</svg>
