<?xml version="1.0" encoding="utf-8"?>
<!-- Generator: Adobe Illustrator 26.0.2, SVG Export Plug-In . SVG Version: 6.00 Build 0)  -->
<svg version="1.1" id="Layer_1" xmlns="http://www.w3.org/2000/svg" xmlns:xlink="http://www.w3.org/1999/xlink" x="0px" y="0px"
	 viewBox="0 0 15 15" style="enable-background:new 0 0 15 15;" xml:space="preserve">
<g id="instagram" transform="translate(-2.997 -2.981)">
	<path id="Path_9" d="M17.9,7.4c0-0.6-0.1-1.3-0.3-1.8c-0.4-1-1.2-1.8-2.2-2.2C14.8,3.2,14.2,3,13.6,3c-0.8,0-1.1,0-3.1,0
		S8.2,3,7.4,3C6.8,3,6.2,3.2,5.6,3.4c-1,0.4-1.8,1.2-2.2,2.2C3.2,6.1,3.1,6.8,3,7.4c0,0.8,0,1.1,0,3.1s0,2.3,0,3.1
		c0,0.6,0.1,1.2,0.3,1.8c0.4,1,1.2,1.8,2.2,2.2c0.6,0.2,1.2,0.4,1.8,0.4c0.8,0,1.1,0,3.1,0s2.3,0,3.1,0c0.6,0,1.2-0.1,1.8-0.3
		c1-0.4,1.8-1.2,2.2-2.2c0.2-0.6,0.3-1.2,0.3-1.8c0-0.8,0-1.1,0-3.1S18,8.2,17.9,7.4z M10.5,14.3c-2.1,0-3.8-1.7-3.8-3.8
		s1.7-3.8,3.8-3.8s3.8,1.7,3.8,3.8l0,0C14.3,12.6,12.6,14.3,10.5,14.3z M14.5,7.4c-0.5,0-0.9-0.4-0.9-0.9s0.4-0.9,0.9-0.9
		c0.5,0,0.9,0.4,0.9,0.9l0,0C15.4,7,15,7.4,14.5,7.4C14.5,7.4,14.5,7.4,14.5,7.4L14.5,7.4z"/>
	<circle id="Ellipse_1" cx="10.5" cy="10.5" r="2.5"/>
</g>
</svg>
