<?xml version="1.0" encoding="utf-8"?>
<!-- Generator: Adobe Illustrator 26.1.0, SVG Export Plug-In . SVG Version: 6.00 Build 0)  -->
<svg version="1.1" id="Capa_1" xmlns="http://www.w3.org/2000/svg" xmlns:xlink="http://www.w3.org/1999/xlink" x="0px" y="0px"
	 viewBox="0 0 283.8 283.8" style="enable-background:new 0 0 283.8 283.8;" xml:space="preserve">
<g>
	<path d="M265.1,22.8l-9.9-8.7c-23-20.4-58.2-18.3-78.6,4.7l-28.3,31.9c-6.4,7.2-5.7,18.3,1.5,24.6l2.7,2.4
		c7.2,6.4,18.2,5.7,24.6-1.5l28.3-31.9c6.3-7.1,17.2-7.8,24.3-1.5l9.9,8.8c7.1,6.3,7.8,17.2,1.5,24.3l-61.8,69.7
		c-5.2,5.9-13.8,7.5-20.8,3.9c-7.7-4-17.1-2.2-22.8,4.2l-0.5,0.5c-3.9,4.4-5.5,10.2-4.4,15.9c1.1,5.8,4.6,10.6,9.8,13.3
		c8.2,4.3,17,6.4,25.8,6.4c15.5,0,30.8-6.5,41.7-18.8l61.8-69.7C290.2,78.4,288.1,43.1,265.1,22.8z"/>
	<path d="M134,208.6l-2.7-2.4c-7.2-6.4-18.3-5.7-24.6,1.5l-28.3,31.9c-6.3,7.1-17.2,7.8-24.3,1.5l-9.9-8.8
		c-7.1-6.3-7.8-17.2-1.5-24.3l61.8-69.7c5.1-5.8,13.6-7.4,20.5-4c8,3.9,17.7,2,23.6-4.7l0.2-0.2c3.8-4.3,5.4-10,4.4-15.6
		c-1-5.6-4.5-10.4-9.5-13.1c-22.8-12.2-50.8-7.2-67.9,12.2L14,182.5v0c-20.4,23-18.3,58.2,4.7,78.6l9.9,8.7
		c10.6,9.4,23.8,14,36.9,14c15.4,0,30.7-6.3,41.7-18.7l28.3-31.9C141.9,226,141.2,215,134,208.6z"/>
</g>
</svg>
