<?xml version="1.0" encoding="utf-8"?>
<!-- Generator: Adobe Illustrator 26.0.2, SVG Export Plug-In . SVG Version: 6.00 Build 0)  -->
<svg version="1.1" id="Layer_1" xmlns="http://www.w3.org/2000/svg" xmlns:xlink="http://www.w3.org/1999/xlink" x="0px" y="0px"
	 viewBox="0 0 180 20" style="enable-background:new 0 0 180 20;" xml:space="preserve">

<path id="logo" d="M0,20h5.7v-8.6h8.6V8.6h2.9V2.9h-2.9V0H0V20z M5.7,8.6V2.9h5.7v5.7L5.7,8.6z M22.9,20h11.4v-2.9h2.9
	V2.9h-2.9V0H22.9v2.9H20v14.3h2.9V20z M25.7,17.1V2.9h5.7v14.3H25.7z M45.7,0H40v20h17.1v-2.9H45.7V0z M62.9,20h11.4v-2.9h2.9v-5.7
	h-2.9V8.6h-8.6V2.9h5.7v2.9h5.7V2.9h-2.9V0H62.9v2.9H60v5.7h2.9v2.9h8.6v5.7h-5.7v-2.9H60v2.9h2.9L62.9,20z M80,20h5.7v-5.7h2.9v2.9
	h2.9V20h5.7v-2.9h-2.9v-2.9h-2.9v-2.9h-2.9V8.6h2.9V5.7h2.9V2.9h2.9V0h-5.7v2.9h-2.9v2.9h-2.9V0H80V20z M111.4,0H100v2.9h2.9v14.3
	H100V20h11.4v-2.9h-2.9V2.9h2.9V0z M114.3,20h5.7v-5.7h-5.7V20z M122.9,20h11.4v-2.9h2.9v-2.9h2.9V5.7h-2.9V2.9h-2.9V0h-11.4V20z
	 M128.6,17.1V2.9h2.9v2.9h2.9v8.6h-2.9v2.9H128.6z M160,0h-17.1v20H160v-2.9h-11.4v-5.7h5.7V8.6h-5.7V2.9H160V0z M168.6,20h5.7v-2.9
	h2.9v-2.9h2.9V0h-5.7v14.3h-5.7V0h-5.7v14.3h2.9v2.9h2.9L168.6,20z"/>
</svg>
