<?xml version="1.0" encoding="utf-8"?>
<!-- Generator: Adobe Illustrator 26.0.2, SVG Export Plug-In . SVG Version: 6.00 Build 0)  -->
<svg version="1.1"
	 id="Layer_1" xmlns:cc="http://creativecommons.org/ns#" xmlns:dc="http://purl.org/dc/elements/1.1/" xmlns:rdf="http://www.w3.org/1999/02/22-rdf-syntax-ns#" xmlns:svg="http://www.w3.org/2000/svg"
	 xmlns="http://www.w3.org/2000/svg" xmlns:xlink="http://www.w3.org/1999/xlink" x="0px" y="0px" viewBox="0 0 128 128"
	 style="enable-background:new 0 0 128 128;" xml:space="preserve">
<path d="M12.9,8.2C5.8,8.2,0,14,0,21.1v51.1v4.4V101c0,10.1,8.2,18.3,18.3,18.3H100h19.2c0.9,0,1.8-0.2,2.7-0.5
	c1.9-0.1,3.4-1.4,4.2-2.9c0.6-1,0.9-2,1.2-3.2c0-0.1,0-0.2,0.1-0.3c0-0.2,0.1-0.4,0.1-0.6c0-0.3,0-0.5,0-0.8c0,0,0-0.1,0-0.1
	c0-0.1,0-0.3,0-0.4V50h0V25.8c0-4.4-3.5-8.1-7.9-8.2c-1.6-5.4-6.5-9.3-12.4-9.3L12.9,8.2z M12.9,13.1h94.3c4.5,0,8,3.5,8,8v51.1v4.4
	V101h0v9.6c0,1.4,0.2,2.7,0.7,3.9H58.3v0H18.3c-7.5,0-13.4-5.9-13.4-13.4V76.6v-4.4V21.1C4.9,16.6,8.4,13.1,12.9,13.1z M16.4,21.1
	c-1.9,0-3.5,2.6-3.5,5.8v24.4c0,3.2,1.6,5.8,3.5,5.8h29.7c1.9,0,3.5-2.6,3.5-5.8V26.9c0-3.2-1.6-5.8-3.5-5.8H16.4z M67.1,21.1
	c-1.9,0-3.5,1.6-3.5,3.6c0,2,1.6,3.6,3.5,3.6h37c1.9,0,3.5-1.6,3.5-3.6c0-2-1.6-3.6-3.5-3.6H67.1z M120.1,22.5
	c1.5,0.4,2.5,1.7,2.5,3.3V111c0,0,0,0.1,0,0.1c0,0.2,0,0.3,0,0.5c0,0.1,0,0.2,0,0.2c-0.2,0.9-0.7,1.6-1.4,2.1
	c-0.1-0.1-0.2-0.2-0.3-0.4c-0.4-0.6-0.7-1.7-0.7-2.9V50h0L120.1,22.5z M67.1,35.5c-1.9,0-3.5,1.6-3.5,3.6s1.6,3.6,3.5,3.6h37
	c1.9,0,3.5-1.6,3.5-3.6c0-2-1.6-3.6-3.5-3.6H67.1z M67.1,49.9c-1.9,0-3.5,1.6-3.5,3.6c0,2,1.6,3.6,3.5,3.6h37c1.9,0,3.5-1.6,3.5-3.6
	c0-2-1.6-3.6-3.5-3.6H67.1z M16.5,68.6c-2,0-3.6,1.6-3.6,3.6c0,2,1.6,3.6,3.6,3.6h87.6c2,0,3.6-1.6,3.6-3.6c0-2-1.6-3.6-3.6-3.6
	H16.5z M16.6,84.4c-2,0-3.6,1.6-3.6,3.6c0,2,1.6,3.6,3.6,3.6H46c2,0,3.6-1.6,3.6-3.6c0-2-1.6-3.6-3.6-3.6H16.6z M67.1,84.4
	c-1.9,0-3.5,1.6-3.5,3.6c0,2,1.6,3.6,3.5,3.6h37c1.9,0,3.5-1.6,3.5-3.6c0-2-1.6-3.6-3.5-3.6H67.1z M16.6,100.2c-2,0-3.6,1.6-3.6,3.6
	c0,2,1.6,3.6,3.6,3.6H46c2,0,3.6-1.6,3.6-3.6c0-2-1.6-3.6-3.6-3.6H16.6z M67.1,100.2c-1.9,0-3.5,1.6-3.5,3.6c0,2,1.6,3.6,3.5,3.6h37
	c1.9,0,3.5-1.6,3.5-3.6c0-2-1.6-3.6-3.5-3.6H67.1z"/>
</svg>
