<?xml version="1.0" encoding="utf-8"?>
<!-- Generator: Adobe Illustrator 26.1.0, SVG Export Plug-In . SVG Version: 6.00 Build 0)  -->
<svg version="1.1" id="Layer_1" xmlns="http://www.w3.org/2000/svg" xmlns:xlink="http://www.w3.org/1999/xlink" x="0px" y="0px"
	 viewBox="0 0 24 24"  xml:space="preserve">
<path class="st0" d="M0.13,18.25l3.12-4.78c-0.89-0.32-1.66-0.91-2.3-1.75c-0.64-0.84-0.95-1.84-0.95-3.03
	c0-1.46,0.52-2.71,1.55-3.75s2.3-1.57,3.77-1.57s2.71,0.52,3.73,1.57c1.02,1.04,1.54,2.3,1.54,3.77c0,0.77-0.12,1.46-0.39,2.09
	c-0.27,0.61-0.64,1.27-1.12,1.96l-5.32,7.91L0.13,18.25z M13.54,18.25l3.12-4.78c-0.89-0.32-1.66-0.91-2.3-1.75
	c-0.62-0.84-0.95-1.84-0.95-3.03c0-1.46,0.52-2.73,1.55-3.77s2.3-1.57,3.77-1.57c1.46,0,2.71,0.52,3.73,1.57
	C23.48,5.95,24,7.22,24,8.68c0,0.77-0.14,1.46-0.39,2.09c-0.25,0.62-0.64,1.27-1.12,1.96l-5.32,7.91l-3.61-2.39L13.54,18.25z"/>
</svg>
