<?xml version="1.0" encoding="utf-8"?>
<!-- Generator: Adobe Illustrator 26.0.2, SVG Export Plug-In . SVG Version: 6.00 Build 0)  -->
<svg version="1.1" id="Capa_1" xmlns="http://www.w3.org/2000/svg" xmlns:xlink="http://www.w3.org/1999/xlink" x="0px" y="0px"
	 viewBox="0 0 183.8 183.8" style="enable-background:new 0 0 183.8 183.8;" xml:space="preserve">
<g>
	<g>
		<path d="M181.5,170.7l-52.8-52.8c10.4-12.5,16.7-28.4,16.7-45.8c0-39.7-32.6-72-72.7-72S-0.2,32.3-0.2,72.1s32.6,72,72.7,72
			c17,0,32.7-5.8,45.2-15.6l53,53c3.1,3.1,7.7,3.1,10.8,0C184.6,178.4,184.6,173.8,181.5,170.7z M15.3,72.1
			c0-31.2,25.7-56.6,57.3-56.6s57.3,25.4,57.3,56.6s-25.7,56.6-57.3,56.6S15.3,103.3,15.3,72.1z"/>
	</g>
</g>
</svg>
