<?xml version="1.0" encoding="utf-8"?>
<!-- Generator: Adobe Illustrator 26.0.2, SVG Export Plug-In . SVG Version: 6.00 Build 0)  -->
<svg version="1.1" id="Layer_1" xmlns="http://www.w3.org/2000/svg" xmlns:xlink="http://www.w3.org/1999/xlink" x="0px" y="0px"
	 viewBox="0 0 13 15" style="enable-background:new 0 0 13 15;" xml:space="preserve">
<path id="tiktok" d="M6.8,0c0.8,0,1.6,0,2.4,0c0,1,0.4,1.9,1.1,2.6C11.1,3.3,12,3.7,13,3.7v2.5c-0.9,0-1.8-0.2-2.6-0.6
	c-0.4-0.2-0.7-0.4-1-0.6c0,1.8,0,3.7,0,5.5c0,0.9-0.3,1.7-0.8,2.5c-0.8,1.2-2.2,2-3.7,2c-0.9,0-1.8-0.2-2.5-0.6
	C1,13.6,0.2,12.3,0,10.8c0-0.3,0-0.6,0-0.9c0.3-2.6,2.6-4.5,5.1-4.2c0.1,0,0.2,0,0.3,0c0,0.9,0,1.8,0,2.8C4.3,8.1,3.1,8.6,2.7,9.8
	c0,0,0,0,0,0c-0.1,0.3-0.1,0.7-0.1,1c0.2,1.1,1.1,1.8,2.2,1.8c0.7,0,1.4-0.4,1.7-1c0.1-0.2,0.2-0.4,0.3-0.7c0.1-1.1,0-2.2,0-3.3
	C6.8,5,6.8,2.5,6.8,0z"/>
</svg>
