<?xml version="1.0" encoding="utf-8"?>
<!-- Generator: Adobe Illustrator 26.0.2, SVG Export Plug-In . SVG Version: 6.00 Build 0)  -->
<svg version="1.1" id="icon" xmlns="http://www.w3.org/2000/svg" xmlns:xlink="http://www.w3.org/1999/xlink" x="0px" y="0px"
	 viewBox="0 0 9 9" style="enable-background:new 0 0 9 9;" xml:space="preserve">
<g id="Group_3">
	<g id="Group_2">
		<path id="Path_4" d="M7.7,1.3c-1.8-1.8-4.6-1.8-6.4,0s-1.8,4.6,0,6.4s4.6,1.8,6.4,0S9.4,3.1,7.7,1.3z M7.4,7.4
			C5.8,9.1,3.2,9.1,1.6,7.5s-1.7-4.2-0.1-5.9c0,0,0,0,0.1-0.1c1.6-1.6,4.2-1.7,5.9-0.1S9.1,5.7,7.4,7.4C7.5,7.4,7.4,7.4,7.4,7.4z"/>
		<path id="Path_5" d="M4.5,1.2c-1.8,0-3.3,1.5-3.3,3.3c0,1.8,1.5,3.3,3.3,3.3c1.8,0,3.3-1.5,3.3-3.3C7.8,2.7,6.3,1.2,4.5,1.2z
			 M4.5,7.5c-1.6,0-3-1.3-3-3c0-1.6,1.3-3,3-3c1.6,0,3,1.3,3,3C7.5,6.1,6.1,7.5,4.5,7.5z"/>
		<path id="Path_6" d="M6.2,4.5H4.6V1.9c0-0.1-0.1-0.2-0.2-0.2S4.2,1.8,4.2,1.9v2.8c0,0.1,0.1,0.2,0.2,0.2l0,0h1.8
			c0.1,0,0.2-0.1,0.2-0.2S6.3,4.5,6.2,4.5z"/>
		<path id="Path_7" d="M4.6,6.9c-1,0-2-0.6-2.4-1.6c0-0.1-0.2-0.1-0.3-0.1S1.9,5.4,1.9,5.5c0.5,1.1,1.5,1.8,2.7,1.8
			c0.1,0,0.2-0.1,0.2-0.2S4.7,6.9,4.6,6.9L4.6,6.9z"/>
		<path id="Path_8" d="M2,5.1c0.1,0,0.2-0.1,0.2-0.2c0,0,0,0,0,0c0-0.1,0-0.3,0-0.4c0-0.1-0.1-0.2-0.2-0.2S1.8,4.4,1.8,4.5
			c0,0.1,0,0.3,0,0.4C1.8,5.1,1.9,5.1,2,5.1L2,5.1z"/>
	</g>
</g>
</svg>
