<?xml version="1.0" encoding="UTF-8"?><svg id="a" xmlns="http://www.w3.org/2000/svg" viewBox="0 0 18.99 23.87"><defs></defs><path class="b" d="M9.48,20.78c-1.19,0-2.28-.2-3.25-.58-.98-.39-1.8-.95-2.48-1.69s-1.21-1.63-1.59-2.68c-.38-1.05-.57-2.25-.57-3.59V0h3.83V12.46c0,.68,.08,1.31,.26,1.87,.17,.57,.43,1.06,.77,1.48,.34,.42,.77,.74,1.28,.98s1.1,.35,1.76,.35,1.28-.12,1.79-.35,.94-.56,1.28-.98c.34-.42,.6-.91,.77-1.48,.17-.57,.26-1.19,.26-1.87V0h3.83V12.23c0,1.27-.19,2.43-.55,3.48-.37,1.05-.9,1.95-1.59,2.7-.69,.75-1.52,1.33-2.5,1.75-.97,.42-2.07,.62-3.28,.62Z"/><path class="b" d="M0,23.87v-1.42H18.99v1.42H0Z"/></svg>