<?xml version="1.0" encoding="utf-8"?>
<!-- Generator: Adobe Illustrator 26.0.2, SVG Export Plug-In . SVG Version: 6.00 Build 0)  -->
<svg version="1.1" id="Capa_1" xmlns="http://www.w3.org/2000/svg" xmlns:xlink="http://www.w3.org/1999/xlink" x="0px" y="0px"
	 viewBox="0 0 490.1 490.1" style="enable-background:new 0 0 490.1 490.1;" xml:space="preserve">
<g>
	<g>
		<path d="M245,261.8c71.9,0,131.4-57.3,131.4-130.3S316.9,0.1,245,0.1S113.6,57.3,113.6,130.4S173.1,261.8,245,261.8z M245,40.8
			c50,0,90.7,40.7,90.7,89.7S295,220,245,220s-90.7-40.7-90.7-89.7S195,40.8,245,40.8z"/>
		<path d="M323.9,274.2L245,356.6l-79.7-82.4C70.3,305.5-0.1,382.8,0,469.3l0,20.8l490.1-0.1v-20.9
			C490,382.6,418.8,305.5,323.9,274.2z M42.7,449.4C51.1,392.1,92.8,343,157.4,318l88.1,90.4l88.1-90.4
			c63.6,25,106.4,75,114.7,131.3L42.7,449.4L42.7,449.4z"/>
	</g>
</g>
</svg>
