<?xml version="1.0" encoding="utf-8"?>
<!-- Generator: Adobe Illustrator 26.0.2, SVG Export Plug-In . SVG Version: 6.00 Build 0)  -->
<svg version="1.1" id="Layer_1" xmlns="http://www.w3.org/2000/svg" xmlns:xlink="http://www.w3.org/1999/xlink" x="0px" y="0px"
	 viewBox="0 0 20 20" style="enable-background:new 0 0 20 20;" xml:space="preserve">
<g id="Group_42" transform="translate(-764.71 -764.718)">
	<g id="Group_7" transform="translate(764.71 764.718)">
		<g id="Group_6" transform="translate(0 0)">
			<path id="Path_11" d="M10,0C4.5,0,0,4.5,0,10s4.5,10,10,10s10-4.5,10-10C20,4.5,15.5,0,10,0z M10,17.4c-4.1,0-7.4-3.3-7.4-7.4
				S5.9,2.6,10,2.6s7.4,3.3,7.4,7.4C17.4,14.1,14.1,17.4,10,17.4L10,17.4z"/>
		</g>
	</g>
	<g id="Group_21" transform="translate(770.994 771.494)">
		<g id="Group_20" transform="translate(0 0)">
			<rect id="Rectangle_6" x="0" y="0" width="2.6" height="2.6"/>
		</g>
	</g>
	<g id="Group_23" transform="translate(775.794 771.494)">
		<g id="Group_22" transform="translate(0 0)">
			<rect id="Rectangle_7" x="0" y="0" width="2.6" height="2.6"/>
		</g>
	</g>
	<g id="Group_25" transform="translate(773.129 776.366)">
		<g id="Group_24" transform="translate(0 0)">
			<circle id="Ellipse_2" cx="1.6" cy="1.6" r="1.6"/>
		</g>
	</g>
</g>
</svg>
