<?xml version="1.0" encoding="utf-8"?>
<!-- Generator: Adobe Illustrator 26.0.2, SVG Export Plug-In . SVG Version: 6.00 Build 0)  -->
<svg version="1.1" id="Layer_1" xmlns="http://www.w3.org/2000/svg" xmlns:xlink="http://www.w3.org/1999/xlink" x="0px" y="0px"
	 viewBox="0 0 20 20" style="enable-background:new 0 0 20 20;" xml:space="preserve">
<g id="emoticons-smiley-svgrepo-com" transform="translate(-0.004 -272.718)">
	<g id="Group_5" transform="translate(0.004 272.718)">
		<g id="Group_4" transform="translate(0 0)">
			<path id="Path_10" d="M10,0C4.5,0,0,4.5,0,10s4.5,10,10,10s10-4.5,10-10C20,4.5,15.5,0,10,0z M10,17.4c-4.1,0-7.4-3.3-7.4-7.4
				S5.9,2.6,10,2.6s7.4,3.3,7.4,7.4C17.4,14.1,14.1,17.4,10,17.4L10,17.4z"/>
		</g>
	</g>
	<g id="Group_17" transform="translate(6.11 278.709)">
		<g id="Group_16" transform="translate(0 0)">
			<rect id="Rectangle_4" x="0" y="0" width="2.6" height="2.6"/>
		</g>
	</g>
	<g id="Group_19" transform="translate(10.91 278.709)">
		<g id="Group_18" transform="translate(0 0)">
			<rect id="Rectangle_5" x="0" y="0" width="2.6" height="2.6"/>
		</g>
	</g>
	<g id="Group_35" transform="translate(6.451 283.625)">
		<g id="Group_34" transform="translate(0 0)">
			<path id="Path_15" d="M3.5,0L3.5,0C1.5,0,0,1.5,0,3.5h2.6C2.6,3,3,2.6,3.5,2.6h0C4,2.6,4.3,3,4.3,3.5v0H7v0C7,1.5,5.4,0,3.5,0z"
				/>
		</g>
	</g>
</g>
</svg>
