<?xml version="1.0" encoding="utf-8"?>
<!-- Generator: Adobe Illustrator 26.0.2, SVG Export Plug-In . SVG Version: 6.00 Build 0)  -->
<svg version="1.1" id="Layer_1" xmlns="http://www.w3.org/2000/svg" xmlns:xlink="http://www.w3.org/1999/xlink" x="0px" y="0px"
	 viewBox="0 0 21.3 15" style="enable-background:new 0 0 21.3 15;" xml:space="preserve">
<g id="youtube" transform="translate(0 -45.917)">
	<path id="XMLID_823_" d="M20.5,47.2c-0.8-0.9-2.2-1.3-4.9-1.3H5.7c-2.8,0-4.2,0.4-5,1.4C0,48.2,0,49.6,0,51.6v3.7
		c0,3.8,0.9,5.7,5.7,5.7h9.8c2.4,0,3.7-0.3,4.5-1.1c0.9-0.8,1.2-2.2,1.2-4.5v-3.7C21.3,49.5,21.3,48.1,20.5,47.2z M13.7,53.9
		l-4.5,2.3c-0.3,0.2-0.8,0-0.9-0.3c-0.1-0.1-0.1-0.2-0.1-0.3V51c0-0.4,0.3-0.7,0.7-0.7c0.1,0,0.2,0,0.3,0.1l4.5,2.3
		c0.3,0.2,0.5,0.6,0.3,0.9C13.9,53.8,13.8,53.9,13.7,53.9L13.7,53.9z"/>
</g>
</svg>
